<svg width="854" height="854" viewBox="0 0 854 854" fill="none" xmlns="http://www.w3.org/2000/svg">
<path d="M427 53.0688C475.338 53.0689 523.21 62.4413 567.968 80.6587L570.097 81.5327C614.756 100.031 655.397 127.009 689.777 160.968L691.41 162.59C725.59 196.77 752.814 237.248 771.581 281.779L772.467 283.903C791.259 329.27 800.931 377.894 800.931 427C800.931 475.337 791.559 523.209 773.341 567.967L772.467 570.096C753.969 614.755 726.991 655.396 693.032 689.776L691.41 691.409C657.23 725.589 616.751 752.812 572.221 771.579L570.097 772.466C524.73 791.258 476.106 800.93 427 800.93C377.895 800.93 329.27 791.258 283.903 772.466C239.244 753.968 198.603 726.99 164.223 693.031L162.59 691.409C128.41 657.229 101.187 616.751 82.4204 572.22L81.5327 570.096C62.741 524.729 53.0689 476.105 53.0688 427L53.0757 424.698C53.3684 377.142 62.7305 330.079 80.6587 286.032L81.5327 283.903C100.031 239.244 127.009 198.603 160.968 164.223L162.59 162.59C197.313 127.868 238.535 100.324 283.903 81.5327C328.561 63.0346 376.376 53.3731 424.699 53.0757L427 53.0688Z" fill="#80DEEA" stroke="#1C5F68"/>
<path d="M413.278 328.646C408.11 396.821 396.367 463.718 414.821 537.293L415.284 539.138L415.787 537.304L427.089 496.197L444.622 540.544L445.19 541.98L445.573 540.485L481.741 398.921L478.628 566.945L479.572 567.183C482.243 562.019 485.991 557.699 489.922 553.456C493.84 549.228 497.955 545.065 501.27 540.265C504.594 535.451 507.13 529.979 507.909 523.102C508.642 516.638 507.818 508.965 504.685 499.466L535.172 526.904L535.897 527.556L536.003 526.586L554.674 356.453C561.974 418.76 559.116 479.269 592.498 546.964L592.954 547.89L593.398 546.957L623.703 483.207L633.954 514.987L634.922 514.925L661.15 374.709C658.196 424.796 653.337 475.399 687.216 520.451L687.894 521.352L688.107 520.245L698.078 468.408C698.768 475.455 699.845 482.446 702.736 488.931C706.119 496.52 711.968 503.387 722.491 508.891L723.253 509.289L723.222 508.43L719.139 396.192L747.764 510.697L748.744 510.642L764.418 393.619C766.466 399.83 767.93 406.217 769.296 412.652C770.809 419.774 772.208 426.965 774.16 433.995C778.05 448.001 784.152 461.431 797.804 472.705C774.741 659.994 615.732 800.767 427 800.93C267.196 800.723 125.205 698.99 73.5989 547.785C73.6201 547.764 73.6402 547.744 73.6575 547.724C73.8278 547.53 73.9842 547.239 74.1312 546.908C74.4327 546.227 74.7762 545.184 75.1556 543.851C75.9167 541.177 76.8438 537.246 77.8724 532.48C79.9305 522.944 82.4046 510.026 84.7884 497.044C87.1724 484.061 89.467 471.009 91.1653 461.203C92.0145 456.301 92.7146 452.209 93.2025 449.343C93.4079 448.136 93.576 447.147 93.7015 446.406C93.941 446.911 94.2395 447.541 94.5921 448.281C95.5936 450.382 97.0274 453.372 98.7562 456.929C102.213 464.042 106.852 473.423 111.576 482.492C116.297 491.556 121.11 500.324 124.916 506.202C126.813 509.13 128.486 511.383 129.789 512.589C130.118 512.893 130.436 513.143 130.74 513.322C131.039 513.498 131.358 513.623 131.679 513.636C132.021 513.65 132.336 513.532 132.585 513.284C132.761 513.108 132.888 512.884 132.982 512.631L133.064 512.37C142.335 477.767 135.044 452.983 125.404 436.844C120.587 428.781 115.189 422.885 110.993 419.002C109.055 417.208 107.372 415.844 106.12 414.894C106.365 414.963 106.626 415.036 106.901 415.116C109.155 415.765 112.403 416.738 116.376 418.036C124.323 420.631 135.166 424.522 146.752 429.702C169.593 439.912 195.204 455.082 207.3 475.128L207.866 476.086V476.087C208.482 477.154 209.214 477.851 210.094 478.017C210.984 478.185 211.842 477.778 212.627 477.078C214.186 475.687 215.805 472.83 217.438 469.061C220.723 461.48 224.207 449.862 227.391 437.767C230.576 425.664 233.468 413.054 235.562 403.472C236.609 398.681 237.458 394.645 238.044 391.807C238.259 390.766 238.437 389.885 238.578 389.188L278.673 511.796L278.876 512.416L279.422 512.059C311.537 491.043 324.937 466.259 331.743 440.176C335.143 427.149 336.897 413.8 338.522 400.457C339.987 388.427 341.35 376.405 343.711 364.588L349.918 505.281L350.898 505.402L361.908 468.359L368.005 519.148L368.989 519.202L413.278 328.646Z" fill="#009688" stroke="#1C5F68"/>
<path d="M485.013 519.202L485.996 519.148L492.093 468.359L503.104 505.402L504.082 505.281L510.289 364.59C512.65 376.407 514.014 388.427 515.479 400.457C517.104 413.8 518.859 427.149 522.258 440.176C529.064 466.259 542.464 491.043 574.578 512.059L575.125 512.416L575.327 511.796L615.421 389.189C615.563 389.886 615.742 390.766 615.957 391.807C616.544 394.645 617.392 398.681 618.44 403.472C620.534 413.054 623.425 425.664 626.61 437.767C629.794 449.862 633.278 461.48 636.564 469.061C638.197 472.83 639.816 475.687 641.374 477.078C642.159 477.778 643.017 478.185 643.906 478.017C644.787 477.851 645.518 477.154 646.134 476.086L646.135 476.087C657.983 455.565 684.045 440.074 707.249 429.702C718.835 424.522 729.678 420.631 737.625 418.036C741.598 416.738 744.847 415.765 747.101 415.116C747.375 415.037 747.635 414.963 747.88 414.894C746.629 415.844 744.945 417.209 743.007 419.002C738.811 422.885 733.414 428.781 728.598 436.844C719.107 452.731 711.894 476.995 720.515 510.755L720.938 512.37C721.034 512.728 721.182 513.05 721.415 513.284C721.664 513.533 721.98 513.65 722.322 513.636C722.643 513.623 722.961 513.498 723.261 513.322C723.565 513.143 723.883 512.894 724.212 512.589C725.516 511.383 727.189 509.13 729.085 506.202C732.891 500.324 737.705 491.556 742.426 482.492C747.149 473.423 751.788 464.042 755.245 456.929C756.974 453.372 758.408 450.382 759.409 448.281C759.762 447.541 760.059 446.911 760.299 446.406C760.424 447.147 760.592 448.136 760.798 449.343C761.286 452.209 761.987 456.301 762.836 461.203C764.534 471.009 766.828 484.061 769.212 497.044C771.596 510.026 774.071 522.944 776.129 532.48C777.158 537.246 778.085 541.177 778.846 543.851C779.225 545.184 779.569 546.227 779.87 546.908C780.017 547.239 780.174 547.53 780.344 547.724C780.361 547.744 780.381 547.764 780.401 547.785C728.796 698.99 586.805 800.723 427 800.93C238.269 800.767 79.2589 659.993 56.1964 472.705C69.8488 461.431 75.9512 448.002 79.8409 433.995C81.7933 426.965 83.1925 419.774 84.7052 412.652C86.0719 406.216 87.5337 399.829 89.5821 393.617L105.256 510.642L106.236 510.697L134.861 396.192L130.779 508.43L130.748 509.289L131.511 508.891C142.033 503.387 147.882 496.52 151.265 488.931C154.156 482.446 155.233 475.455 155.922 468.408L165.894 520.245L166.107 521.352L166.784 520.451C200.663 475.399 195.805 424.796 192.851 374.709L219.079 514.925L220.047 514.987L230.296 483.206L260.603 546.957L261.046 547.89L261.503 546.964C294.885 479.269 292.026 418.76 299.326 356.453L317.998 526.586L318.105 527.556L318.829 526.904L349.314 499.467C346.18 508.965 345.359 516.638 346.092 523.102C346.871 529.979 349.407 535.451 352.732 540.265C356.046 545.065 360.161 549.228 364.079 553.456C368.01 557.699 371.757 562.019 374.429 567.183L375.373 566.945L372.26 398.921L408.429 540.485L408.811 541.98L409.378 540.544L426.911 496.198L438.213 537.304L438.718 539.138L439.181 537.293C457.634 463.72 445.892 396.824 440.724 328.652L485.013 519.202Z" fill="#00695C" stroke="#1C5F68"/>
<mask id="path-4-outside-1_2_37" maskUnits="userSpaceOnUse" x="136" y="559" width="581" height="104" fill="black">
<rect fill="white" x="136" y="559" width="581" height="104"/>
<path d="M189.114 647.893C195.027 647.893 200.147 647.081 204.473 645.458C208.848 643.834 211.948 642.258 213.775 640.73L219.183 651.26C217.02 653.171 213.246 655.105 207.862 657.063C202.526 659.021 196.109 660 188.61 660C181.591 660 175.078 658.758 169.069 656.275C163.06 653.791 157.796 650.329 153.277 645.887C148.807 641.446 145.297 636.264 142.75 630.342C140.25 624.42 139 618.02 139 611.143C139 604.266 140.25 597.843 142.75 591.873C145.249 585.903 148.734 580.697 153.205 576.256C157.724 571.767 162.988 568.28 168.996 565.797C175.053 563.266 181.591 562 188.61 562C196.109 562 202.526 562.979 207.862 564.937C213.246 566.895 217.02 568.829 219.183 570.74L213.775 581.27C211.948 579.694 208.848 578.118 204.473 576.542C200.147 574.919 195.027 574.107 189.114 574.107C183.73 574.107 178.803 575.014 174.332 576.829C169.862 578.644 165.968 581.223 162.651 584.566C159.382 587.861 156.834 591.753 155.008 596.243C153.229 600.732 152.34 605.627 152.34 610.928C152.34 616.277 153.229 621.22 155.008 625.757C156.834 630.247 159.382 634.163 162.651 637.506C165.968 640.801 169.862 643.356 174.332 645.171C178.803 646.986 183.73 647.893 189.114 647.893Z"/>
<path d="M261.053 660C254.948 660 249.516 658.639 244.757 655.917C240.046 653.194 236.345 649.517 233.653 644.885C230.961 640.204 229.615 634.927 229.615 629.053C229.615 623.178 230.961 617.877 233.653 613.149C236.345 608.421 240.046 604.672 244.757 601.902C249.516 599.132 254.948 597.747 261.053 597.747C267.11 597.747 272.47 599.132 277.133 601.902C281.844 604.672 285.522 608.421 288.166 613.149C290.81 617.877 292.132 623.178 292.132 629.053C292.132 634.927 290.81 640.204 288.166 644.885C285.522 649.517 281.844 653.194 277.133 655.917C272.47 658.639 267.11 660 261.053 660ZM261.053 649.326C264.899 649.326 268.24 648.442 271.076 646.675C273.961 644.908 276.196 642.497 277.782 639.44C279.369 636.336 280.162 632.849 280.162 628.981C280.162 625.113 279.369 621.626 277.782 618.522C276.196 615.418 273.961 612.958 271.076 611.143C268.24 609.328 264.899 608.421 261.053 608.421C257.16 608.421 253.771 609.328 250.886 611.143C248.002 612.958 245.743 615.418 244.108 618.522C242.522 621.626 241.729 625.113 241.729 628.981C241.729 632.849 242.522 636.336 244.108 639.44C245.743 642.497 248.002 644.908 250.886 646.675C253.771 648.442 257.16 649.326 261.053 649.326Z"/>
<path d="M377.067 597.747C381.441 597.747 385.191 598.702 388.315 600.613C391.44 602.475 393.82 605.341 395.454 609.209C397.137 613.077 397.978 618.02 397.978 624.038V658.281H385.575V626.545C385.575 620.193 384.686 615.418 382.907 612.218C381.129 609.018 377.884 607.418 373.173 607.418C370.673 607.418 368.27 608.111 365.962 609.496C363.703 610.833 361.828 612.91 360.338 615.728C358.896 618.546 358.175 622.152 358.175 626.545V658.281H346.493V626.545C346.493 620.193 345.388 615.418 343.176 612.218C340.965 609.018 337.865 607.418 333.875 607.418C331.327 607.418 328.923 608.087 326.664 609.424C324.453 610.713 322.65 612.767 321.256 615.585C319.862 618.403 319.165 622.056 319.165 626.545V658.281H306.69V599.466H319.165V608.493C319.694 607.012 320.823 605.436 322.554 603.765C324.333 602.093 326.592 600.684 329.332 599.538C332.12 598.344 335.221 597.747 338.634 597.747C342.191 597.747 345.171 598.463 347.575 599.896C349.979 601.329 351.877 603.096 353.271 605.197C354.666 607.251 355.627 609.233 356.156 611.143C356.829 609.09 358.127 607.036 360.05 604.982C361.972 602.881 364.4 601.162 367.332 599.825C370.265 598.44 373.509 597.747 377.067 597.747Z"/>
<path d="M486.354 597.747C490.728 597.747 494.478 598.702 497.603 600.613C500.727 602.475 503.107 605.341 504.741 609.209C506.424 613.077 507.265 618.02 507.265 624.038V658.281H494.862V626.545C494.862 620.193 493.973 615.418 492.195 612.218C490.416 609.018 487.171 607.418 482.46 607.418C479.96 607.418 477.557 608.111 475.249 609.496C472.99 610.833 471.115 612.91 469.625 615.728C468.183 618.546 467.462 622.152 467.462 626.545V658.281H455.78V626.545C455.78 620.193 454.675 615.418 452.464 612.218C450.252 609.018 447.152 607.418 443.162 607.418C440.614 607.418 438.21 608.087 435.951 609.424C433.74 610.713 431.937 612.767 430.543 615.585C429.149 618.403 428.452 622.056 428.452 626.545V658.281H415.977V599.466H428.452V608.493C428.981 607.012 430.11 605.436 431.841 603.765C433.62 602.093 435.879 600.684 438.619 599.538C441.407 598.344 444.508 597.747 447.921 597.747C451.478 597.747 454.459 598.463 456.862 599.896C459.266 601.329 461.164 603.096 462.559 605.197C463.953 607.251 464.914 609.233 465.443 611.143C466.116 609.09 467.414 607.036 469.337 604.982C471.259 602.881 473.687 601.162 476.619 599.825C479.552 598.44 482.797 597.747 486.354 597.747Z"/>
<path d="M552.016 660C545.911 660 540.479 658.639 535.72 655.917C531.009 653.194 527.308 649.517 524.616 644.885C521.924 640.204 520.578 634.927 520.578 629.053C520.578 623.178 521.924 617.877 524.616 613.149C527.308 608.421 531.009 604.672 535.72 601.902C540.479 599.132 545.911 597.747 552.016 597.747C558.073 597.747 563.433 599.132 568.096 601.902C572.807 604.672 576.485 608.421 579.128 613.149C581.772 617.877 583.094 623.178 583.094 629.053C583.094 634.927 581.772 640.204 579.128 644.885C576.485 649.517 572.807 653.194 568.096 655.917C563.433 658.639 558.073 660 552.016 660ZM552.016 649.326C555.862 649.326 559.203 648.442 562.039 646.675C564.923 644.908 567.159 642.497 568.745 639.44C570.331 636.336 571.125 632.849 571.125 628.981C571.125 625.113 570.331 621.626 568.745 618.522C567.159 615.418 564.923 612.958 562.039 611.143C559.203 609.328 555.862 608.421 552.016 608.421C548.122 608.421 544.733 609.328 541.849 611.143C538.965 612.958 536.706 615.418 535.071 618.522C533.485 621.626 532.692 625.113 532.692 628.981C532.692 632.849 533.485 636.336 535.071 639.44C536.706 642.497 538.965 644.908 541.849 646.675C544.733 648.442 548.122 649.326 552.016 649.326Z"/>
<path d="M630.101 597.747C633.995 597.747 637.769 598.559 641.422 600.183C645.124 601.807 648.152 604.385 650.508 607.92C652.911 611.406 654.113 615.967 654.113 621.602V658.281H641.422V624.038C641.422 618.212 640.052 613.985 637.312 611.358C634.572 608.684 631.039 607.346 626.712 607.346C623.876 607.346 621.136 608.158 618.492 609.782C615.896 611.358 613.757 613.555 612.075 616.373C610.392 619.143 609.551 622.295 609.551 625.829V658.281H597.004V599.466H609.551V609.925C609.983 608.302 611.161 606.535 613.084 604.624C615.007 602.714 617.459 601.09 620.439 599.753C623.419 598.416 626.64 597.747 630.101 597.747Z"/>
<path d="M692.728 597.747C695.805 597.747 698.665 598.058 701.309 598.678C704.001 599.299 706.309 600.039 708.231 600.899C710.202 601.759 711.596 602.523 712.414 603.192L707.438 611.072C706.477 610.212 704.746 609.257 702.247 608.206C699.747 607.108 696.959 606.558 693.882 606.558C690.517 606.558 687.657 607.227 685.301 608.564C682.946 609.854 681.768 611.74 681.768 614.224C681.768 616.707 682.97 618.689 685.374 620.17C687.825 621.602 691.094 622.796 695.18 623.751C698.449 624.516 701.501 625.542 704.338 626.832C707.222 628.121 709.553 629.912 711.332 632.205C713.111 634.449 714 637.458 714 641.231C714 644.67 713.279 647.607 711.837 650.042C710.395 652.43 708.448 654.365 705.996 655.845C703.544 657.278 700.804 658.328 697.776 658.997C694.747 659.666 691.671 660 688.546 660C684.893 660 681.6 659.618 678.668 658.854C675.735 658.137 673.26 657.278 671.241 656.275C669.27 655.224 667.828 654.317 666.914 653.553L671.89 644.67C673.139 645.864 675.182 647.129 678.019 648.466C680.903 649.804 684.172 650.472 687.825 650.472C691.863 650.472 695.132 649.636 697.632 647.965C700.131 646.246 701.381 644.025 701.381 641.303C701.381 639.249 700.78 637.601 699.579 636.36C698.377 635.118 696.766 634.115 694.747 633.351C692.728 632.587 690.517 631.918 688.114 631.345C685.806 630.82 683.547 630.127 681.336 629.268C679.172 628.408 677.177 627.309 675.351 625.972C673.572 624.587 672.154 622.916 671.096 620.958C670.039 618.952 669.51 616.612 669.51 613.937C669.51 610.546 670.592 607.657 672.755 605.269C674.918 602.833 677.754 600.971 681.263 599.681C684.773 598.392 688.594 597.747 692.728 597.747Z"/>
</mask>
<path d="M189.114 647.893C195.027 647.893 200.147 647.081 204.473 645.458C208.848 643.834 211.948 642.258 213.775 640.73L219.183 651.26C217.02 653.171 213.246 655.105 207.862 657.063C202.526 659.021 196.109 660 188.61 660C181.591 660 175.078 658.758 169.069 656.275C163.06 653.791 157.796 650.329 153.277 645.887C148.807 641.446 145.297 636.264 142.75 630.342C140.25 624.42 139 618.02 139 611.143C139 604.266 140.25 597.843 142.75 591.873C145.249 585.903 148.734 580.697 153.205 576.256C157.724 571.767 162.988 568.28 168.996 565.797C175.053 563.266 181.591 562 188.61 562C196.109 562 202.526 562.979 207.862 564.937C213.246 566.895 217.02 568.829 219.183 570.74L213.775 581.27C211.948 579.694 208.848 578.118 204.473 576.542C200.147 574.919 195.027 574.107 189.114 574.107C183.73 574.107 178.803 575.014 174.332 576.829C169.862 578.644 165.968 581.223 162.651 584.566C159.382 587.861 156.834 591.753 155.008 596.243C153.229 600.732 152.34 605.627 152.34 610.928C152.34 616.277 153.229 621.22 155.008 625.757C156.834 630.247 159.382 634.163 162.651 637.506C165.968 640.801 169.862 643.356 174.332 645.171C178.803 646.986 183.73 647.893 189.114 647.893Z" fill="#FFDA89"/>
<path d="M261.053 660C254.948 660 249.516 658.639 244.757 655.917C240.046 653.194 236.345 649.517 233.653 644.885C230.961 640.204 229.615 634.927 229.615 629.053C229.615 623.178 230.961 617.877 233.653 613.149C236.345 608.421 240.046 604.672 244.757 601.902C249.516 599.132 254.948 597.747 261.053 597.747C267.11 597.747 272.47 599.132 277.133 601.902C281.844 604.672 285.522 608.421 288.166 613.149C290.81 617.877 292.132 623.178 292.132 629.053C292.132 634.927 290.81 640.204 288.166 644.885C285.522 649.517 281.844 653.194 277.133 655.917C272.47 658.639 267.11 660 261.053 660ZM261.053 649.326C264.899 649.326 268.24 648.442 271.076 646.675C273.961 644.908 276.196 642.497 277.782 639.44C279.369 636.336 280.162 632.849 280.162 628.981C280.162 625.113 279.369 621.626 277.782 618.522C276.196 615.418 273.961 612.958 271.076 611.143C268.24 609.328 264.899 608.421 261.053 608.421C257.16 608.421 253.771 609.328 250.886 611.143C248.002 612.958 245.743 615.418 244.108 618.522C242.522 621.626 241.729 625.113 241.729 628.981C241.729 632.849 242.522 636.336 244.108 639.44C245.743 642.497 248.002 644.908 250.886 646.675C253.771 648.442 257.16 649.326 261.053 649.326Z" fill="#FFDA89"/>
<path d="M377.067 597.747C381.441 597.747 385.191 598.702 388.315 600.613C391.44 602.475 393.82 605.341 395.454 609.209C397.137 613.077 397.978 618.02 397.978 624.038V658.281H385.575V626.545C385.575 620.193 384.686 615.418 382.907 612.218C381.129 609.018 377.884 607.418 373.173 607.418C370.673 607.418 368.27 608.111 365.962 609.496C363.703 610.833 361.828 612.91 360.338 615.728C358.896 618.546 358.175 622.152 358.175 626.545V658.281H346.493V626.545C346.493 620.193 345.388 615.418 343.176 612.218C340.965 609.018 337.865 607.418 333.875 607.418C331.327 607.418 328.923 608.087 326.664 609.424C324.453 610.713 322.65 612.767 321.256 615.585C319.862 618.403 319.165 622.056 319.165 626.545V658.281H306.69V599.466H319.165V608.493C319.694 607.012 320.823 605.436 322.554 603.765C324.333 602.093 326.592 600.684 329.332 599.538C332.12 598.344 335.221 597.747 338.634 597.747C342.191 597.747 345.171 598.463 347.575 599.896C349.979 601.329 351.877 603.096 353.271 605.197C354.666 607.251 355.627 609.233 356.156 611.143C356.829 609.09 358.127 607.036 360.05 604.982C361.972 602.881 364.4 601.162 367.332 599.825C370.265 598.44 373.509 597.747 377.067 597.747Z" fill="#FFDA89"/>
<path d="M486.354 597.747C490.728 597.747 494.478 598.702 497.603 600.613C500.727 602.475 503.107 605.341 504.741 609.209C506.424 613.077 507.265 618.02 507.265 624.038V658.281H494.862V626.545C494.862 620.193 493.973 615.418 492.195 612.218C490.416 609.018 487.171 607.418 482.46 607.418C479.96 607.418 477.557 608.111 475.249 609.496C472.99 610.833 471.115 612.91 469.625 615.728C468.183 618.546 467.462 622.152 467.462 626.545V658.281H455.78V626.545C455.78 620.193 454.675 615.418 452.464 612.218C450.252 609.018 447.152 607.418 443.162 607.418C440.614 607.418 438.21 608.087 435.951 609.424C433.74 610.713 431.937 612.767 430.543 615.585C429.149 618.403 428.452 622.056 428.452 626.545V658.281H415.977V599.466H428.452V608.493C428.981 607.012 430.11 605.436 431.841 603.765C433.62 602.093 435.879 600.684 438.619 599.538C441.407 598.344 444.508 597.747 447.921 597.747C451.478 597.747 454.459 598.463 456.862 599.896C459.266 601.329 461.164 603.096 462.559 605.197C463.953 607.251 464.914 609.233 465.443 611.143C466.116 609.09 467.414 607.036 469.337 604.982C471.259 602.881 473.687 601.162 476.619 599.825C479.552 598.44 482.797 597.747 486.354 597.747Z" fill="#FFDA89"/>
<path d="M552.016 660C545.911 660 540.479 658.639 535.72 655.917C531.009 653.194 527.308 649.517 524.616 644.885C521.924 640.204 520.578 634.927 520.578 629.053C520.578 623.178 521.924 617.877 524.616 613.149C527.308 608.421 531.009 604.672 535.72 601.902C540.479 599.132 545.911 597.747 552.016 597.747C558.073 597.747 563.433 599.132 568.096 601.902C572.807 604.672 576.485 608.421 579.128 613.149C581.772 617.877 583.094 623.178 583.094 629.053C583.094 634.927 581.772 640.204 579.128 644.885C576.485 649.517 572.807 653.194 568.096 655.917C563.433 658.639 558.073 660 552.016 660ZM552.016 649.326C555.862 649.326 559.203 648.442 562.039 646.675C564.923 644.908 567.159 642.497 568.745 639.44C570.331 636.336 571.125 632.849 571.125 628.981C571.125 625.113 570.331 621.626 568.745 618.522C567.159 615.418 564.923 612.958 562.039 611.143C559.203 609.328 555.862 608.421 552.016 608.421C548.122 608.421 544.733 609.328 541.849 611.143C538.965 612.958 536.706 615.418 535.071 618.522C533.485 621.626 532.692 625.113 532.692 628.981C532.692 632.849 533.485 636.336 535.071 639.44C536.706 642.497 538.965 644.908 541.849 646.675C544.733 648.442 548.122 649.326 552.016 649.326Z" fill="#FFDA89"/>
<path d="M630.101 597.747C633.995 597.747 637.769 598.559 641.422 600.183C645.124 601.807 648.152 604.385 650.508 607.92C652.911 611.406 654.113 615.967 654.113 621.602V658.281H641.422V624.038C641.422 618.212 640.052 613.985 637.312 611.358C634.572 608.684 631.039 607.346 626.712 607.346C623.876 607.346 621.136 608.158 618.492 609.782C615.896 611.358 613.757 613.555 612.075 616.373C610.392 619.143 609.551 622.295 609.551 625.829V658.281H597.004V599.466H609.551V609.925C609.983 608.302 611.161 606.535 613.084 604.624C615.007 602.714 617.459 601.09 620.439 599.753C623.419 598.416 626.64 597.747 630.101 597.747Z" fill="#FFDA89"/>
<path d="M692.728 597.747C695.805 597.747 698.665 598.058 701.309 598.678C704.001 599.299 706.309 600.039 708.231 600.899C710.202 601.759 711.596 602.523 712.414 603.192L707.438 611.072C706.477 610.212 704.746 609.257 702.247 608.206C699.747 607.108 696.959 606.558 693.882 606.558C690.517 606.558 687.657 607.227 685.301 608.564C682.946 609.854 681.768 611.74 681.768 614.224C681.768 616.707 682.97 618.689 685.374 620.17C687.825 621.602 691.094 622.796 695.18 623.751C698.449 624.516 701.501 625.542 704.338 626.832C707.222 628.121 709.553 629.912 711.332 632.205C713.111 634.449 714 637.458 714 641.231C714 644.67 713.279 647.607 711.837 650.042C710.395 652.43 708.448 654.365 705.996 655.845C703.544 657.278 700.804 658.328 697.776 658.997C694.747 659.666 691.671 660 688.546 660C684.893 660 681.6 659.618 678.668 658.854C675.735 658.137 673.26 657.278 671.241 656.275C669.27 655.224 667.828 654.317 666.914 653.553L671.89 644.67C673.139 645.864 675.182 647.129 678.019 648.466C680.903 649.804 684.172 650.472 687.825 650.472C691.863 650.472 695.132 649.636 697.632 647.965C700.131 646.246 701.381 644.025 701.381 641.303C701.381 639.249 700.78 637.601 699.579 636.36C698.377 635.118 696.766 634.115 694.747 633.351C692.728 632.587 690.517 631.918 688.114 631.345C685.806 630.82 683.547 630.127 681.336 629.268C679.172 628.408 677.177 627.309 675.351 625.972C673.572 624.587 672.154 622.916 671.096 620.958C670.039 618.952 669.51 616.612 669.51 613.937C669.51 610.546 670.592 607.657 672.755 605.269C674.918 602.833 677.754 600.971 681.263 599.681C684.773 598.392 688.594 597.747 692.728 597.747Z" fill="#FFDA89"/>
<path d="M189.114 647.893C195.027 647.893 200.147 647.081 204.473 645.458C208.848 643.834 211.948 642.258 213.775 640.73L219.183 651.26C217.02 653.171 213.246 655.105 207.862 657.063C202.526 659.021 196.109 660 188.61 660C181.591 660 175.078 658.758 169.069 656.275C163.06 653.791 157.796 650.329 153.277 645.887C148.807 641.446 145.297 636.264 142.75 630.342C140.25 624.42 139 618.02 139 611.143C139 604.266 140.25 597.843 142.75 591.873C145.249 585.903 148.734 580.697 153.205 576.256C157.724 571.767 162.988 568.28 168.996 565.797C175.053 563.266 181.591 562 188.61 562C196.109 562 202.526 562.979 207.862 564.937C213.246 566.895 217.02 568.829 219.183 570.74L213.775 581.27C211.948 579.694 208.848 578.118 204.473 576.542C200.147 574.919 195.027 574.107 189.114 574.107C183.73 574.107 178.803 575.014 174.332 576.829C169.862 578.644 165.968 581.223 162.651 584.566C159.382 587.861 156.834 591.753 155.008 596.243C153.229 600.732 152.34 605.627 152.34 610.928C152.34 616.277 153.229 621.22 155.008 625.757C156.834 630.247 159.382 634.163 162.651 637.506C165.968 640.801 169.862 643.356 174.332 645.171C178.803 646.986 183.73 647.893 189.114 647.893Z" stroke="#A17515" stroke-width="6" mask="url(#path-4-outside-1_2_37)"/>
<path d="M261.053 660C254.948 660 249.516 658.639 244.757 655.917C240.046 653.194 236.345 649.517 233.653 644.885C230.961 640.204 229.615 634.927 229.615 629.053C229.615 623.178 230.961 617.877 233.653 613.149C236.345 608.421 240.046 604.672 244.757 601.902C249.516 599.132 254.948 597.747 261.053 597.747C267.11 597.747 272.47 599.132 277.133 601.902C281.844 604.672 285.522 608.421 288.166 613.149C290.81 617.877 292.132 623.178 292.132 629.053C292.132 634.927 290.81 640.204 288.166 644.885C285.522 649.517 281.844 653.194 277.133 655.917C272.47 658.639 267.11 660 261.053 660ZM261.053 649.326C264.899 649.326 268.24 648.442 271.076 646.675C273.961 644.908 276.196 642.497 277.782 639.44C279.369 636.336 280.162 632.849 280.162 628.981C280.162 625.113 279.369 621.626 277.782 618.522C276.196 615.418 273.961 612.958 271.076 611.143C268.24 609.328 264.899 608.421 261.053 608.421C257.16 608.421 253.771 609.328 250.886 611.143C248.002 612.958 245.743 615.418 244.108 618.522C242.522 621.626 241.729 625.113 241.729 628.981C241.729 632.849 242.522 636.336 244.108 639.44C245.743 642.497 248.002 644.908 250.886 646.675C253.771 648.442 257.16 649.326 261.053 649.326Z" stroke="#A17515" stroke-width="6" mask="url(#path-4-outside-1_2_37)"/>
<path d="M377.067 597.747C381.441 597.747 385.191 598.702 388.315 600.613C391.44 602.475 393.82 605.341 395.454 609.209C397.137 613.077 397.978 618.02 397.978 624.038V658.281H385.575V626.545C385.575 620.193 384.686 615.418 382.907 612.218C381.129 609.018 377.884 607.418 373.173 607.418C370.673 607.418 368.27 608.111 365.962 609.496C363.703 610.833 361.828 612.91 360.338 615.728C358.896 618.546 358.175 622.152 358.175 626.545V658.281H346.493V626.545C346.493 620.193 345.388 615.418 343.176 612.218C340.965 609.018 337.865 607.418 333.875 607.418C331.327 607.418 328.923 608.087 326.664 609.424C324.453 610.713 322.65 612.767 321.256 615.585C319.862 618.403 319.165 622.056 319.165 626.545V658.281H306.69V599.466H319.165V608.493C319.694 607.012 320.823 605.436 322.554 603.765C324.333 602.093 326.592 600.684 329.332 599.538C332.12 598.344 335.221 597.747 338.634 597.747C342.191 597.747 345.171 598.463 347.575 599.896C349.979 601.329 351.877 603.096 353.271 605.197C354.666 607.251 355.627 609.233 356.156 611.143C356.829 609.09 358.127 607.036 360.05 604.982C361.972 602.881 364.4 601.162 367.332 599.825C370.265 598.44 373.509 597.747 377.067 597.747Z" stroke="#A17515" stroke-width="6" mask="url(#path-4-outside-1_2_37)"/>
<path d="M486.354 597.747C490.728 597.747 494.478 598.702 497.603 600.613C500.727 602.475 503.107 605.341 504.741 609.209C506.424 613.077 507.265 618.02 507.265 624.038V658.281H494.862V626.545C494.862 620.193 493.973 615.418 492.195 612.218C490.416 609.018 487.171 607.418 482.46 607.418C479.96 607.418 477.557 608.111 475.249 609.496C472.99 610.833 471.115 612.91 469.625 615.728C468.183 618.546 467.462 622.152 467.462 626.545V658.281H455.78V626.545C455.78 620.193 454.675 615.418 452.464 612.218C450.252 609.018 447.152 607.418 443.162 607.418C440.614 607.418 438.21 608.087 435.951 609.424C433.74 610.713 431.937 612.767 430.543 615.585C429.149 618.403 428.452 622.056 428.452 626.545V658.281H415.977V599.466H428.452V608.493C428.981 607.012 430.11 605.436 431.841 603.765C433.62 602.093 435.879 600.684 438.619 599.538C441.407 598.344 444.508 597.747 447.921 597.747C451.478 597.747 454.459 598.463 456.862 599.896C459.266 601.329 461.164 603.096 462.559 605.197C463.953 607.251 464.914 609.233 465.443 611.143C466.116 609.09 467.414 607.036 469.337 604.982C471.259 602.881 473.687 601.162 476.619 599.825C479.552 598.44 482.797 597.747 486.354 597.747Z" stroke="#A17515" stroke-width="6" mask="url(#path-4-outside-1_2_37)"/>
<path d="M552.016 660C545.911 660 540.479 658.639 535.72 655.917C531.009 653.194 527.308 649.517 524.616 644.885C521.924 640.204 520.578 634.927 520.578 629.053C520.578 623.178 521.924 617.877 524.616 613.149C527.308 608.421 531.009 604.672 535.72 601.902C540.479 599.132 545.911 597.747 552.016 597.747C558.073 597.747 563.433 599.132 568.096 601.902C572.807 604.672 576.485 608.421 579.128 613.149C581.772 617.877 583.094 623.178 583.094 629.053C583.094 634.927 581.772 640.204 579.128 644.885C576.485 649.517 572.807 653.194 568.096 655.917C563.433 658.639 558.073 660 552.016 660ZM552.016 649.326C555.862 649.326 559.203 648.442 562.039 646.675C564.923 644.908 567.159 642.497 568.745 639.44C570.331 636.336 571.125 632.849 571.125 628.981C571.125 625.113 570.331 621.626 568.745 618.522C567.159 615.418 564.923 612.958 562.039 611.143C559.203 609.328 555.862 608.421 552.016 608.421C548.122 608.421 544.733 609.328 541.849 611.143C538.965 612.958 536.706 615.418 535.071 618.522C533.485 621.626 532.692 625.113 532.692 628.981C532.692 632.849 533.485 636.336 535.071 639.44C536.706 642.497 538.965 644.908 541.849 646.675C544.733 648.442 548.122 649.326 552.016 649.326Z" stroke="#A17515" stroke-width="6" mask="url(#path-4-outside-1_2_37)"/>
<path d="M630.101 597.747C633.995 597.747 637.769 598.559 641.422 600.183C645.124 601.807 648.152 604.385 650.508 607.92C652.911 611.406 654.113 615.967 654.113 621.602V658.281H641.422V624.038C641.422 618.212 640.052 613.985 637.312 611.358C634.572 608.684 631.039 607.346 626.712 607.346C623.876 607.346 621.136 608.158 618.492 609.782C615.896 611.358 613.757 613.555 612.075 616.373C610.392 619.143 609.551 622.295 609.551 625.829V658.281H597.004V599.466H609.551V609.925C609.983 608.302 611.161 606.535 613.084 604.624C615.007 602.714 617.459 601.09 620.439 599.753C623.419 598.416 626.64 597.747 630.101 597.747Z" stroke="#A17515" stroke-width="6" mask="url(#path-4-outside-1_2_37)"/>
<path d="M692.728 597.747C695.805 597.747 698.665 598.058 701.309 598.678C704.001 599.299 706.309 600.039 708.231 600.899C710.202 601.759 711.596 602.523 712.414 603.192L707.438 611.072C706.477 610.212 704.746 609.257 702.247 608.206C699.747 607.108 696.959 606.558 693.882 606.558C690.517 606.558 687.657 607.227 685.301 608.564C682.946 609.854 681.768 611.74 681.768 614.224C681.768 616.707 682.97 618.689 685.374 620.17C687.825 621.602 691.094 622.796 695.18 623.751C698.449 624.516 701.501 625.542 704.338 626.832C707.222 628.121 709.553 629.912 711.332 632.205C713.111 634.449 714 637.458 714 641.231C714 644.67 713.279 647.607 711.837 650.042C710.395 652.43 708.448 654.365 705.996 655.845C703.544 657.278 700.804 658.328 697.776 658.997C694.747 659.666 691.671 660 688.546 660C684.893 660 681.6 659.618 678.668 658.854C675.735 658.137 673.26 657.278 671.241 656.275C669.27 655.224 667.828 654.317 666.914 653.553L671.89 644.67C673.139 645.864 675.182 647.129 678.019 648.466C680.903 649.804 684.172 650.472 687.825 650.472C691.863 650.472 695.132 649.636 697.632 647.965C700.131 646.246 701.381 644.025 701.381 641.303C701.381 639.249 700.78 637.601 699.579 636.36C698.377 635.118 696.766 634.115 694.747 633.351C692.728 632.587 690.517 631.918 688.114 631.345C685.806 630.82 683.547 630.127 681.336 629.268C679.172 628.408 677.177 627.309 675.351 625.972C673.572 624.587 672.154 622.916 671.096 620.958C670.039 618.952 669.51 616.612 669.51 613.937C669.51 610.546 670.592 607.657 672.755 605.269C674.918 602.833 677.754 600.971 681.263 599.681C684.773 598.392 688.594 597.747 692.728 597.747Z" stroke="#A17515" stroke-width="6" mask="url(#path-4-outside-1_2_37)"/>
<circle cx="427" cy="427" r="379" stroke="black" stroke-width="10"/>
</svg>
